<?xml version="1.0" encoding="utf-8"?><svg viewBox="0 0 68 68" xmlns="http://www.w3.org/2000/svg" xmlns:xlink="http://www.w3.org/1999/xlink"><style>:root>svg{display:none}:root>svg:target{display:block}</style><svg viewBox="0 0 16 16" fill="none" id="icon-arrow" xmlns="http://www.w3.org/2000/svg"><path d="M15 8H1M8 15L1 8l7-7"/></svg><svg viewBox="0 0 17 17" id="icon-close" xmlns="http://www.w3.org/2000/svg"><g stroke-width="2" fill-rule="evenodd" stroke-linecap="round"><path d="M1 1l14.142 14.142M15 1L1 15"/></g></svg><svg viewBox="0 0 11 20" id="icon-facebook" xmlns="http://www.w3.org/2000/svg"><path fill-rule="evenodd" clip-rule="evenodd" d="M11 0H8a5 5 0 00-5 5v3H0v4h3v8h4v-8h3l1-4H7V5a1 1 0 011-1h3V0z"/></svg><svg viewBox="0 0 68 68" id="icon-play" xmlns="http://www.w3.org/2000/svg"><path fill-rule="evenodd" clip-rule="evenodd" d="M34 66c17.673 0 32-14.327 32-32C66 16.327 51.673 2 34 2 16.327 2 2 16.327 2 34c0 17.673 14.327 32 32 32z"/><path fill-rule="evenodd" clip-rule="evenodd" d="M27 24l16 10.286L27 44.57V24z"/></svg><svg viewBox="0 0 20 20" fill="none" id="icon-search" xmlns="http://www.w3.org/2000/svg"><path clip-rule="evenodd" d="M9 17A8 8 0 109 1a8 8 0 000 16z" stroke="#000" stroke-width="2" stroke-linecap="round" stroke-linejoin="round"/><path d="M19 19l-4.35-4.35" stroke="#000" stroke-width="2" stroke-linecap="round" stroke-linejoin="round"/></svg><svg viewBox="0 0 20 17" id="icon-twitter" xmlns="http://www.w3.org/2000/svg"><path fill-rule="evenodd" clip-rule="evenodd" d="M20 .01a9.91 9.91 0 01-2.855 1.39A4.073 4.073 0 0010 4.128v.909A9.69 9.69 0 011.818.918S-1.818 9.1 6.364 12.737A10.582 10.582 0 010 14.555c8.182 4.545 18.182 0 18.182-10.455-.001-.253-.025-.506-.073-.754A7.018 7.018 0 0020 .009z"/></svg></svg>